<?xml version="1.0" encoding="utf-8"?>
<svg viewBox="0 0 500 500" xmlns="http://www.w3.org/2000/svg">
  <path class="cls-1" d="M 125.728 28.149 C 125.728 28.149 33.931 160.195 51.355 365.505 C 79.25 287.098 146.671 279.859 146.671 279.859 C 146.671 279.859 183.707 357.389 182.677 475.872 C 209.413 280.89 158.258 174.636 146.671 154.024 C 147.83 192.119 147.83 228.275 147.83 228.275 C 129.548 234.621 112.02 242.574 95.514 252.01 C 85.001 180.843 110.751 80.762 125.728 28.149 Z" style="fill: rgb(29, 29, 27);"/>
  <path class="cls-1" d="M 361.309 24.46 C 361.309 24.46 453.106 156.507 435.682 361.816 C 407.787 283.41 340.409 276.169 340.409 276.169 C 340.409 276.169 303.202 353.7 304.188 472.182 C 277.452 277.2 328.607 170.946 340.238 150.334 C 339.079 188.432 339.079 224.585 339.079 224.585 C 357.352 230.928 374.866 238.88 391.35 248.322 C 401.994 177.155 376.416 77.072 361.309 24.46 Z" style="fill: rgb(29, 29, 27);"/>
  <path class="cls-1" d="M 280.623 48.2 C 280.623 63.439 247.196 110.111 247.196 110.111 C 247.196 110.111 213.907 63.515 213.907 48.2 C 213.907 26.85 241.764 13.507 264.049 24.181 C 274.393 29.138 280.761 38.292 280.761 48.2 L 280.623 48.2 Z" style="fill: rgb(29, 29, 27);"/>
</svg>